<?xml version="1.0" encoding="utf-8"?>
<!-- Uploaded to: SVG Repo, www.svgrepo.com, Generator: SVG Repo Mixer Tools -->
<svg width="800px" height="800px" viewBox="-3.84 0 50.111 50.111" xmlns="http://www.w3.org/2000/svg">
  <g id="Group_1641" data-name="Group 1641" transform="translate(3428.416 -2050.811)">
    <path id="Path_3451" data-name="Path 3451" d="M-3397.12,2073.659c0,12.088-4.986,21.888-11.136,21.888s-11.136-9.8-11.136-21.888,4.986-21.888,11.136-21.888,11.136,9.8,11.136,21.888" fill="#ffffff" fill-rule="evenodd"/>
    <path id="Path_3452" data-name="Path 3452" d="M-3394.048,2076.731c0,12.088-4.986,21.888-11.136,21.888s-11.136-9.8-11.136-21.888,4.986-21.888,11.136-21.888,11.136,9.8,11.136,21.888" fill="#efeb44" fill-rule="evenodd"/>
    <path id="Path_3453" data-name="Path 3453" d="M-3408.256,2052.731c-5.516,0-10.176,9.584-10.176,20.928s4.66,20.928,10.176,20.928,10.176-9.584,10.176-20.928S-3402.74,2052.731-3408.256,2052.731Zm0,43.776c-6.783,0-12.1-10.037-12.1-22.848s5.313-22.848,12.1-22.848,12.1,10.036,12.1,22.848-5.313,22.848-12.1,22.848" fill="#6f0911" fill-rule="evenodd"/>
    <path id="Path_3454" data-name="Path 3454" d="M-3412.416,2097.761c-12.811-2.528-7.088-17.365-15.04-22.159,16.779,0,21.3,10.75,20.684,17.853a4.783,4.783,0,0,1-5.644,4.306" fill="#ffffff" fill-rule="evenodd"/>
    <path id="Path_3455" data-name="Path 3455" d="M-3404.1,2097.761c12.811-2.528,7.088-17.365,15.04-22.159-16.779,0-21.3,10.75-20.684,17.853a4.783,4.783,0,0,0,5.644,4.306" fill="#ffffff" fill-rule="evenodd"/>
    <path id="Path_3456" data-name="Path 3456" d="M-3408.384,2100.833c-12.811-2.528-7.088-17.365-15.04-22.159,16.779,0,21.3,10.75,20.684,17.853a4.783,4.783,0,0,1-5.644,4.306" fill="#5db67d" fill-rule="evenodd"/>
    <path id="Path_3457" data-name="Path 3457" d="M-3401.024,2100.833c12.811-2.528,7.088-17.365,15.04-22.159-16.779,0-21.3,10.75-20.684,17.853a4.783,4.783,0,0,0,5.644,4.306" fill="#5db67d" fill-rule="evenodd"/>
    <path id="Path_3458" data-name="Path 3458" d="M-3411.712,2076.283a.96.96,0,0,1-.96-.96,104.137,104.137,0,0,1,.709-12.11.964.964,0,0,1,1.092-.808.959.959,0,0,1,.807,1.091,101.7,101.7,0,0,0-.688,11.827.96.96,0,0,1-.96.96" fill="#6f0911" fill-rule="evenodd"/>
    <path id="Path_3459" data-name="Path 3459" d="M-3409.876,2059.42a.944.944,0,0,1-.256-.035.96.96,0,0,1-.67-1.181c.1-.383.215-.753.326-1.11a.961.961,0,0,1,1.205-.627.96.96,0,0,1,.627,1.205c-.106.334-.207.682-.307,1.044a.963.963,0,0,1-.925.7" fill="#6f0911" fill-rule="evenodd"/>
    <path id="Path_3460" data-name="Path 3460" d="M-3409.7,2073.065a10.35,10.35,0,0,1-5.167-1.417.959.959,0,0,1-.358-1.309.957.957,0,0,1,1.309-.359,7.8,7.8,0,0,0,6.883.671.961.961,0,0,1,1.275.457.958.958,0,0,1-.449,1.275,8.633,8.633,0,0,1-3.493.682" fill="#6f0911" fill-rule="evenodd"/>
    <path id="Path_3461" data-name="Path 3461" d="M-3424.742,2076.667c1.987,2.34,2.724,5.531,3.442,8.641,1.209,5.238,2.352,10.185,9.071,11.511h0a3.7,3.7,0,0,0,2.969-.689,3.869,3.869,0,0,0,1.531-2.757,14.784,14.784,0,0,0-3.773-11.086C-3414.48,2079.04-3419.023,2077.12-3424.742,2076.667Zm13.221,22.142a5.561,5.561,0,0,1-1.081-.106h0c-7.938-1.566-9.335-7.621-10.568-12.963-.889-3.843-1.726-7.474-4.782-9.317a.958.958,0,0,1-.429-1.078.959.959,0,0,1,.925-.7c7.555,0,13.561,2.194,17.37,6.348a16.728,16.728,0,0,1,4.269,12.548,5.791,5.791,0,0,1-2.289,4.127,5.688,5.688,0,0,1-3.415,1.143" fill="#6f0911" fill-rule="evenodd"/>
    <path id="Path_3462" data-name="Path 3462" d="M-3404.992,2098.809a5.689,5.689,0,0,1-3.42-1.148.961.961,0,0,1-.187-1.345.961.961,0,0,1,1.345-.188,3.7,3.7,0,0,0,2.971.692c6.719-1.327,7.862-6.274,9.071-11.512.718-3.112,1.456-6.305,3.447-8.647-9.272.706-13.485,5.026-15.4,8.7a.961.961,0,0,1-1.294.407.959.959,0,0,1-.408-1.294c1.911-3.672,7.027-9.832,19.809-9.832a.959.959,0,0,1,.925.7.958.958,0,0,1-.429,1.078c-3.056,1.843-3.893,5.474-4.782,9.317-1.233,5.342-2.63,11.4-10.568,12.963a5.58,5.58,0,0,1-1.082.106" fill="#6f0911" fill-rule="evenodd"/>
  </g>
</svg>